<?xml version="1.0" encoding="utf-8"?>
<!-- Generator: Adobe Illustrator 17.0.0, SVG Export Plug-In . SVG Version: 6.00 Build 0)  -->
<!DOCTYPE svg PUBLIC "-//W3C//DTD SVG 1.1//EN" "http://www.w3.org/Graphics/SVG/1.1/DTD/svg11.dtd">
<svg version="1.1" id="Layer_1" xmlns="http://www.w3.org/2000/svg" xmlns:xlink="http://www.w3.org/1999/xlink" x="0px" y="0px"
	 width="500px" height="500px" viewBox="0 0 1000 1000" enable-background="new 0 0 500 500" xml:space="preserve" fill="white">
<text transform="matrix(1 0 0 1 323.4395 549.4631)"><tspan x="20" y="0" font-family="'BrandonGrotesque-Regular'" font-size="90.2006">dev</tspan><tspan x="200.217" y="0" font-family="'BrandonGrotesque-Bold'" font-size="90.2006">JS</tspan></text>
<g>
	<path d="M505.175,337.025c0,0-1.239,0.022-3.561,0.062c-1.161,0.02-2.593,0.045-4.277,0.074c-0.818,0.024-1.799,0.009-2.659,0.069
		c-0.892,0.046-1.839,0.095-2.841,0.147c-2.014,0.122-4.205,0.171-6.675,0.373c-2.481,0.217-5.164,0.451-8.031,0.702
		c-2.861,0.351-5.905,0.725-9.114,1.119c-3.196,0.49-6.559,1.029-10.069,1.613c-6.979,1.345-14.558,2.885-22.437,5.101
		c-7.917,2.09-16.136,4.809-24.531,7.963c-2.091,0.815-4.199,1.636-6.323,2.464c-2.096,0.9-4.206,1.807-6.33,2.72
		c-2.14,0.885-4.238,1.891-6.351,2.9c-1.059,0.501-2.12,1.004-3.184,1.508l-1.598,0.758l-1.572,0.815
		c-2.102,1.088-4.212,2.181-6.329,3.277c-2.095,1.138-4.164,2.337-6.26,3.508c-2.11,1.149-4.153,2.415-6.205,3.677
		c-2.043,1.274-4.146,2.472-6.135,3.839l-6.044,3.999c-1.967,1.403-3.932,2.804-5.894,4.202c-1.987,1.372-3.868,2.87-5.775,4.332
		c-1.894,1.476-3.833,2.894-5.644,4.448c-1.84,1.525-3.673,3.045-5.496,4.556c-1.771,1.576-3.533,3.144-5.284,4.702
		c-1.776,1.538-3.453,3.158-5.12,4.768c-1.657,1.619-3.371,3.167-4.95,4.815c-1.591,1.642-3.168,3.27-4.731,4.883l-1.171,1.208
		l-1.119,1.243c-0.745,0.827-1.486,1.65-2.223,2.469c-3.003,3.234-5.727,6.58-8.43,9.808c-1.38,1.593-2.596,3.274-3.865,4.88
		c-1.246,1.622-2.505,3.2-3.689,4.792c-1.156,1.612-2.293,3.197-3.409,4.753c-1.115,1.559-2.234,3.074-3.226,4.626
		c-4.134,6.106-7.68,11.879-10.689,17.082c-1.468,2.625-2.843,5.082-4.114,7.354c-1.186,2.32-2.276,4.45-3.26,6.374
		c-0.493,0.964-0.959,1.876-1.398,2.734c-0.407,0.873-0.789,1.692-1.144,2.453c-0.709,1.526-1.313,2.823-1.802,3.875
		c-0.979,2.107-1.502,3.23-1.502,3.23s0.421-1.165,1.21-3.349c0.395-1.093,0.883-2.442,1.456-4.027
		c0.288-0.793,0.597-1.645,0.927-2.555c0.362-0.896,0.748-1.848,1.155-2.855c0.816-2.016,1.718-4.247,2.701-6.677
		c1.074-2.393,2.235-4.982,3.476-7.747c2.562-5.498,5.621-11.636,9.258-18.187c0.868-1.663,1.863-3.295,2.853-4.975
		c0.993-1.68,2.005-3.392,3.035-5.133c1.059-1.723,2.194-3.439,3.317-5.203c1.146-1.748,2.24-3.577,3.499-5.323
		c2.462-3.534,4.95-7.207,7.728-10.789c0.682-0.906,1.367-1.818,2.056-2.734l1.037-1.378l1.09-1.346
		c1.46-1.8,2.933-3.617,4.419-5.45c1.479-1.842,3.096-3.589,4.658-5.411c1.573-1.813,3.16-3.641,4.851-5.392
		c1.671-1.774,3.351-3.558,5.04-5.352c1.752-1.735,3.512-3.479,5.28-5.23c1.744-1.782,3.62-3.432,5.456-5.144
		c1.849-1.697,3.679-3.434,5.619-5.047c1.92-1.642,3.844-3.288,5.77-4.935l5.954-4.746c1.964-1.618,4.048-3.07,6.079-4.598
		c2.04-1.516,4.076-3.039,6.185-4.445c2.095-1.428,4.169-2.886,6.275-4.283c2.133-1.356,4.26-2.709,6.379-4.056l1.59-1.01
		l1.619-0.952c1.079-0.634,2.156-1.266,3.23-1.897c2.147-1.267,4.285-2.532,6.47-3.676c2.174-1.171,4.336-2.335,6.481-3.49
		c2.185-1.083,4.355-2.159,6.506-3.225c8.66-4.163,17.225-7.859,25.544-10.869c8.28-3.135,16.316-5.536,23.772-7.663
		c3.749-0.975,7.354-1.885,10.793-2.725c3.463-0.74,6.748-1.443,9.836-2.103c3.113-0.553,6.026-1.07,8.719-1.549
		c2.709-0.464,5.303-0.768,7.596-1.104c1.154-0.159,2.246-0.31,3.274-0.452c1.058-0.158,1.887-0.213,2.746-0.314
		c1.675-0.178,3.099-0.329,4.254-0.451c2.31-0.245,3.542-0.376,3.542-0.376L505.175,337.025z"/>
</g>
<g>
	<path d="M458.707,657.737c0,0,1.211,0.263,3.48,0.756c1.135,0.247,2.535,0.551,4.18,0.908c0.802,0.164,1.754,0.404,2.604,0.543
		c0.879,0.16,1.812,0.329,2.799,0.508c1.988,0.344,4.132,0.798,6.582,1.167c2.465,0.358,5.13,0.745,7.978,1.159
		c2.865,0.314,5.913,0.649,9.127,1.001c3.223,0.256,6.62,0.503,10.171,0.74c7.102,0.292,14.832,0.531,23.009,0.181
		c8.185-0.219,16.809-0.98,25.704-2.124c2.222-0.313,4.463-0.629,6.719-0.948c2.246-0.396,4.509-0.794,6.785-1.195
		c2.286-0.371,4.559-0.869,6.847-1.366c1.145-0.245,2.294-0.491,3.445-0.737l1.73-0.371l1.717-0.433
		c2.296-0.577,4.6-1.157,6.912-1.738c2.3-0.627,4.589-1.32,6.898-1.979c2.318-0.634,4.596-1.399,6.883-2.155
		c2.281-0.771,4.603-1.455,6.851-2.329l6.8-2.506c2.236-0.914,4.471-1.827,6.701-2.738c2.249-0.88,4.424-1.907,6.614-2.892
		c2.182-1.002,4.394-1.938,6.513-3.035c2.141-1.063,4.273-2.121,6.395-3.174c2.085-1.128,4.16-2.25,6.222-3.365
		c2.081-1.09,4.085-2.282,6.077-3.467c1.984-1.196,4.007-2.309,5.923-3.552c1.925-1.233,3.834-2.456,5.725-3.668l1.417-0.908
		l1.374-0.953c0.915-0.634,1.825-1.266,2.73-1.893c3.665-2.459,7.083-5.092,10.454-7.613c1.708-1.234,3.278-2.591,4.881-3.863
		c1.585-1.293,3.172-2.54,4.689-3.818c1.495-1.304,2.965-2.586,4.408-3.845c1.442-1.261,2.88-2.479,4.201-3.763
		c5.424-4.995,10.2-9.801,14.322-14.175c2.031-2.218,3.933-4.294,5.691-6.214c1.687-1.986,3.236-3.809,4.635-5.457
		c0.701-0.825,1.364-1.606,1.988-2.341c0.597-0.756,1.156-1.466,1.676-2.125c1.04-1.322,1.925-2.447,2.642-3.359
		c1.437-1.826,2.203-2.8,2.203-2.8s-0.677,1.037-1.946,2.982c-0.635,0.973-1.419,2.174-2.341,3.586
		c-0.462,0.706-0.959,1.465-1.488,2.274c-0.558,0.789-1.152,1.628-1.779,2.514c-1.256,1.775-2.647,3.74-4.161,5.879
		c-1.594,2.083-3.318,4.336-5.16,6.744c-3.755,4.764-8.14,10.037-13.183,15.579c-1.226,1.42-2.569,2.78-3.918,4.188
		c-1.352,1.408-2.73,2.842-4.131,4.3c-1.426,1.435-2.925,2.844-4.422,4.304c-1.516,1.439-3,2.968-4.627,4.378
		c-3.207,2.875-6.471,5.88-9.997,8.729c-0.871,0.726-1.747,1.456-2.628,2.189l-1.325,1.104l-1.369,1.06
		c-1.833,1.417-3.684,2.848-5.551,4.291c-1.862,1.454-3.836,2.783-5.775,4.199c-1.947,1.404-3.911,2.819-5.958,4.135
		c-2.033,1.343-4.078,2.695-6.133,4.053c-2.103,1.287-4.216,2.581-6.338,3.88c-2.106,1.335-4.311,2.51-6.491,3.755
		c-2.189,1.227-4.368,2.498-6.626,3.624c-2.246,1.158-4.496,2.319-6.748,3.48l-6.883,3.254c-2.283,1.124-4.644,2.059-6.972,3.082
		c-2.333,1.008-4.664,2.024-7.039,2.908c-2.366,0.91-4.72,1.853-7.09,2.73c-2.388,0.831-4.768,1.659-7.139,2.485l-1.779,0.618
		l-1.794,0.556c-1.196,0.369-2.389,0.738-3.579,1.106c-2.38,0.741-4.751,1.482-7.141,2.094c-2.385,0.641-4.755,1.278-7.109,1.911
		c-2.375,0.553-4.734,1.102-7.073,1.647c-9.384,2.066-18.569,3.699-27.356,4.72c-8.778,1.153-17.151,1.647-24.896,2.006
		c-3.872,0.089-7.591,0.148-11.13,0.177c-3.541-0.074-6.899-0.144-10.056-0.209c-3.156-0.176-6.111-0.34-8.842-0.492
		c-2.743-0.17-5.338-0.469-7.647-0.668c-1.16-0.11-2.258-0.214-3.291-0.311c-1.066-0.089-1.885-0.226-2.745-0.324
		c-1.671-0.211-3.092-0.391-4.244-0.536c-2.304-0.291-3.533-0.446-3.533-0.446L458.707,657.737z"/>
</g>
</svg>
